<?xml version="1.0"?>
<!DOCTYPE svg PUBLIC "-//W3C//DTD SVG 1.1//EN" "http://www.w3.org/Graphics/SVG/1.1/DTD/svg11.dtd">
<svg version="1.1" id="yawf-icon" xmlns="http://www.w3.org/2000/svg" xmlns:xlink="http://www.w3.org/1999/xlink" x="0px" y="0px" viewBox="0 0 96 96">
  <path style="fill:#D92D3A;" d="M12,54c11.687-0.576,21.197-0.143,24.75,7.5c3.398,5.701,0.191,13.075-1.5,18c3.936,0.705,6.164,2.012,8.25,4.5c-10.499,0-21.001,0-31.5,0C12,74.001,12,63.999,12,54z"/>
  <path style="fill:#E98D49;" d="M71.366,28.911c-11.204-13.26-27.73-18.315-42.984-14.853h-0.006c-3.53,0.807-5.78,4.513-5.024,8.274c0.752,3.764,4.224,6.169,7.753,5.366c10.852-2.46,22.595,1.138,30.56,10.558c7.957,9.419,10.119,22.266,6.711,33.528l0.002,0.002c-1.111,3.669,0.769,7.593,4.21,8.779c3.427,1.185,7.111-0.819,8.223-4.479c0-0.007,0-0.021,0.002-0.027C85.595,60.217,82.574,42.158,71.366,28.911"/>
  <path style="fill:#E98D49;" d="M54.161,45.486c-5.453-6.458-13.505-8.911-20.938-7.224c-3.038,0.691-4.974,3.883-4.322,7.128c0.65,3.232,3.637,5.309,6.668,4.605v0.007c3.633-0.82,7.573,0.376,10.239,3.527c2.669,3.158,3.386,7.46,2.241,11.235h0.006c-0.952,3.151,0.664,6.539,3.618,7.56c2.955,1.01,6.125-0.71,7.079-3.869C61.086,60.739,59.625,51.943,54.161,45.486"/>
</svg>
